<svg width="96" height="96" xmlns="http://www.w3.org/2000/svg" xmlns:xlink="http://www.w3.org/1999/xlink" xml:space="preserve" overflow="hidden"><g transform="translate(-730 -312)"><path d="M777.979 322C757.004 322 740 339.004 740 359.979 740 380.954 757.004 397.958 777.979 397.958 798.954 397.958 815.958 380.954 815.958 359.979 815.958 359.978 815.958 359.977 815.958 359.976 815.965 339.01 798.974 322.007 778.008 322 777.998 322 777.989 322 777.979 322ZM787.179 361.793C781.646 367.316 776.079 372.889 770.479 378.51 765.72 373.729 760.95 368.959 756.169 364.2L760.95 359.419 770.479 368.948C775.105 364.255 779.705 359.596 784.279 354.969 788.85 350.343 791.379 347.86 796.12 343.278 796.253 343.145 796.396 343.013 796.551 342.878 796.701 342.751 796.836 342.606 796.951 342.446L801.799 347.227C796.168 352.827 792.712 356.267 787.178 361.79Z" fill="#00FF00"/></g></svg>