<svg width="37" height="37" xmlns="http://www.w3.org/2000/svg" xmlns:xlink="http://www.w3.org/1999/xlink" xml:space="preserve" overflow="hidden"><g transform="translate(-266 -264)"><path d="M284.153 295.257 289.665 289.746 297.489 296.105C297.643 296.259 297.913 296.221 298.067 296.067 298.221 295.913 298.221 295.681 298.105 295.489L291.746 287.703 297.257 282.192C297.681 281.768 297.797 281.151 297.604 280.573 297.411 279.995 296.872 279.609 296.294 279.571 294.752 279.417 292.864 279.918 290.936 280.958L282.766 274.406C283.459 273.057 283.768 271.554 283.652 270.051 283.498 268.972 282.149 268.394 281.417 269.126L271.126 279.417C270.394 280.149 270.972 281.498 272.051 281.652 273.554 281.768 275.057 281.498 276.406 280.766L282.958 288.936C281.918 290.864 281.455 292.752 281.571 294.294 281.609 294.872 281.995 295.411 282.573 295.604 283.112 295.835 283.729 295.681 284.153 295.257Z" fill="#ED7D31"/></g></svg>