<svg width="96" height="96" xmlns="http://www.w3.org/2000/svg" xmlns:xlink="http://www.w3.org/1999/xlink" xml:space="preserve" overflow="hidden"><g transform="translate(-592 -312)"><path d="M639.985 322C619.009 321.999 602.005 339.003 602.004 359.979 602.003 380.955 619.007 397.959 639.983 397.96 660.959 397.961 677.963 380.957 677.964 359.981 677.964 359.98 677.964 359.978 677.964 359.977 677.972 339.011 660.981 322.008 640.015 322 640.005 322 639.995 322 639.985 322ZM656.955 372.169 652.174 376.95 639.985 364.759 627.8 376.948 623.019 372.167 635.2 359.977 623.014 347.788 627.8 343.007 639.985 355.2 652.174 343.007 656.955 347.788 644.766 359.977Z" fill="#FF0000"/></g></svg>